<svg width="39" height="40" viewBox="0 0 39 40" fill="none" xmlns="http://www.w3.org/2000/svg">
<path d="M8.64322 24.0683L7.28569 29.1362L2.32393 29.2411C0.84109 26.4908 0 23.344 0 20.0001C0 16.7665 0.786399 13.7172 2.18034 11.0322H2.18141L6.59877 11.8421L8.53384 16.2329C8.12883 17.4137 7.90809 18.6812 7.90809 20.0001C7.90824 21.4315 8.16753 22.803 8.64322 24.0683Z" fill="#FBBB00"/>
<path d="M38.6583 16.3572C38.8823 17.5368 38.999 18.755 38.999 20C38.999 21.3961 38.8523 22.7579 38.5726 24.0715C37.6234 28.5415 35.143 32.4447 31.707 35.2068L31.7059 35.2058L26.142 34.9219L25.3545 30.0061C27.6345 28.669 29.4163 26.5765 30.3549 24.0715H19.9277V16.3572H38.6583Z" fill="#518EF8"/>
<path d="M31.7071 35.2058L31.7081 35.2069C28.3664 37.8929 24.1213 39.5001 19.5003 39.5001C12.0742 39.5001 5.61782 35.3494 2.32422 29.2412L8.64351 24.0684C10.2903 28.4633 14.5299 31.5919 19.5003 31.5919C21.6367 31.5919 23.6382 31.0144 25.3556 30.0062L31.7071 35.2058Z" fill="#28B446"/>
<path d="M31.9461 4.98927L25.629 10.161C23.8515 9.04999 21.7504 8.40816 19.4993 8.40816C14.4165 8.40816 10.0975 11.6803 8.53326 16.2328L2.18075 11.0321H2.17969C5.42507 4.775 11.9629 0.5 19.4993 0.5C24.2308 0.5 28.569 2.18538 31.9461 4.98927Z" fill="#F14336"/>
</svg>
