<svg width="108" height="39" viewBox="0 0 108 39" fill="none" xmlns="http://www.w3.org/2000/svg">
<path d="M16.764 29.836C15.196 29.836 13.6933 29.6307 12.256 29.22C10.8187 28.7907 9.66133 28.24 8.784 27.568L10.324 24.152C11.164 24.7493 12.1533 25.244 13.292 25.636C14.4493 26.0093 15.616 26.196 16.792 26.196C17.688 26.196 18.4067 26.112 18.948 25.944C19.508 25.7573 19.9187 25.5053 20.18 25.188C20.4413 24.8707 20.572 24.5067 20.572 24.096C20.572 23.5733 20.3667 23.1627 19.956 22.864C19.5453 22.5467 19.004 22.2947 18.332 22.108C17.66 21.9027 16.9133 21.716 16.092 21.548C15.2893 21.3613 14.4773 21.1373 13.656 20.876C12.8533 20.6147 12.116 20.2787 11.444 19.868C10.772 19.4573 10.2213 18.916 9.792 18.244C9.38133 17.572 9.176 16.7133 9.176 15.668C9.176 14.548 9.47467 13.5307 10.072 12.616C10.688 11.6827 11.6027 10.9453 12.816 10.404C14.048 9.844 15.588 9.564 17.436 9.564C18.668 9.564 19.8813 9.71333 21.076 10.012C22.2707 10.292 23.3253 10.7213 24.24 11.3L22.84 14.744C21.9253 14.2213 21.0107 13.8387 20.096 13.596C19.1813 13.3347 18.2853 13.204 17.408 13.204C16.5307 13.204 15.812 13.3067 15.252 13.512C14.692 13.7173 14.2907 13.988 14.048 14.324C13.8053 14.6413 13.684 15.0147 13.684 15.444C13.684 15.948 13.8893 16.3587 14.3 16.676C14.7107 16.9747 15.252 17.2173 15.924 17.404C16.596 17.5907 17.3333 17.7773 18.136 17.964C18.9573 18.1507 19.7693 18.3653 20.572 18.608C21.3933 18.8507 22.14 19.1773 22.812 19.588C23.484 19.9987 24.0253 20.54 24.436 21.212C24.8653 21.884 25.08 22.7333 25.08 23.76C25.08 24.8613 24.772 25.8693 24.156 26.784C23.54 27.6987 22.616 28.436 21.384 28.996C20.1707 29.556 18.6307 29.836 16.764 29.836ZM37.0275 14.212C38.2221 14.212 39.2861 14.4547 40.2195 14.94C41.1715 15.4067 41.9181 16.1347 42.4595 17.124C43.0008 18.0947 43.2715 19.3453 43.2715 20.876V29.5H38.9035V21.548C38.9035 20.3347 38.6328 19.4387 38.0915 18.86C37.5688 18.2813 36.8221 17.992 35.8515 17.992C35.1608 17.992 34.5355 18.1413 33.9755 18.44C33.4341 18.72 33.0048 19.1587 32.6875 19.756C32.3888 20.3533 32.2395 21.1187 32.2395 22.052V29.5H27.8715V8.724H32.2395V18.608L31.2595 17.348C31.8008 16.34 32.5755 15.5653 33.5835 15.024C34.5915 14.4827 35.7395 14.212 37.0275 14.212ZM54.5082 29.724C52.9029 29.724 51.4749 29.388 50.2242 28.716C48.9922 28.044 48.0122 27.1293 47.2842 25.972C46.5749 24.796 46.2202 23.4613 46.2202 21.968C46.2202 20.456 46.5749 19.1213 47.2842 17.964C48.0122 16.788 48.9922 15.8733 50.2242 15.22C51.4749 14.548 52.9029 14.212 54.5082 14.212C56.0949 14.212 57.5136 14.548 58.7642 15.22C60.0149 15.8733 60.9949 16.7787 61.7042 17.936C62.4136 19.0933 62.7682 20.4373 62.7682 21.968C62.7682 23.4613 62.4136 24.796 61.7042 25.972C60.9949 27.1293 60.0149 28.044 58.7642 28.716C57.5136 29.388 56.0949 29.724 54.5082 29.724ZM54.5082 26.14C55.2362 26.14 55.8896 25.972 56.4682 25.636C57.0469 25.3 57.5042 24.824 57.8402 24.208C58.1762 23.5733 58.3442 22.8267 58.3442 21.968C58.3442 21.0907 58.1762 20.344 57.8402 19.728C57.5042 19.112 57.0469 18.636 56.4682 18.3C55.8896 17.964 55.2362 17.796 54.5082 17.796C53.7802 17.796 53.1269 17.964 52.5482 18.3C51.9696 18.636 51.5029 19.112 51.1482 19.728C50.8122 20.344 50.6442 21.0907 50.6442 21.968C50.6442 22.8267 50.8122 23.5733 51.1482 24.208C51.5029 24.824 51.9696 25.3 52.5482 25.636C53.1269 25.972 53.7802 26.14 54.5082 26.14ZM74.5919 29.724C73.3225 29.724 72.2119 29.444 71.2599 28.884C70.3079 28.324 69.5612 27.4747 69.0199 26.336C68.4972 25.1787 68.2359 23.7227 68.2359 21.968C68.2359 20.1947 68.4879 18.7387 68.9919 17.6C69.4959 16.4613 70.2239 15.612 71.1759 15.052C72.1279 14.492 73.2665 14.212 74.5919 14.212C76.0105 14.212 77.2799 14.5387 78.3999 15.192C79.5385 15.8267 80.4345 16.7227 81.0879 17.88C81.7599 19.0373 82.0959 20.4 82.0959 21.968C82.0959 23.5547 81.7599 24.9267 81.0879 26.084C80.4345 27.2413 79.5385 28.1373 78.3999 28.772C77.2799 29.4067 76.0105 29.724 74.5919 29.724ZM65.6879 34.932V14.436H69.8599V17.516L69.7759 21.996L70.0559 26.448V34.932H65.6879ZM73.8359 26.14C74.5639 26.14 75.2079 25.972 75.7679 25.636C76.3465 25.3 76.8039 24.824 77.1399 24.208C77.4945 23.5733 77.6719 22.8267 77.6719 21.968C77.6719 21.0907 77.4945 20.344 77.1399 19.728C76.8039 19.112 76.3465 18.636 75.7679 18.3C75.2079 17.964 74.5639 17.796 73.8359 17.796C73.1079 17.796 72.4545 17.964 71.8759 18.3C71.2972 18.636 70.8399 19.112 70.5039 19.728C70.1679 20.344 69.9999 21.0907 69.9999 21.968C69.9999 22.8267 70.1679 23.5733 70.5039 24.208C70.8399 24.824 71.2972 25.3 71.8759 25.636C72.4545 25.972 73.1079 26.14 73.8359 26.14ZM86.5138 35.156C85.7298 35.156 84.9551 35.0347 84.1898 34.792C83.4244 34.5493 82.7991 34.2133 82.3137 33.784L83.9098 30.676C84.2458 30.9747 84.6284 31.208 85.0578 31.376C85.5058 31.544 85.9444 31.628 86.3738 31.628C86.9898 31.628 87.4751 31.4787 87.8298 31.18C88.2031 30.9 88.5391 30.424 88.8378 29.752L89.6218 27.904L89.9578 27.428L95.3618 14.436H99.5618L92.7578 30.424C92.2724 31.6373 91.7124 32.5893 91.0778 33.28C90.4618 33.9707 89.7711 34.456 89.0058 34.736C88.2591 35.016 87.4284 35.156 86.5138 35.156ZM89.0898 30.088L82.3697 14.436H86.8778L92.0858 27.036L89.0898 30.088Z" fill="black"/>
</svg>
